<svg xmlns="http://www.w3.org/2000/svg" xmlns:xlink="http://www.w3.org/1999/xlink" viewBox="0 0 550.416 484.317" class="inline-block w-16 h-16"><defs><linearGradient id="a"><stop offset="0" style="stop-color:#fff;stop-opacity:1"></stop><stop offset=".243" style="stop-color:#fff;stop-opacity:1"></stop><stop offset="1" style="stop-color:#fff;stop-opacity:1"></stop></linearGradient><linearGradient id="b"><stop offset="0" style="stop-color:#fff;stop-opacity:1"></stop><stop offset=".232" style="stop-color:#fff;stop-opacity:1"></stop><stop offset="1" style="stop-color:#fff;stop-opacity:1"></stop></linearGradient><linearGradient xlink:href="#a" id="c" x1="200.597" x2="290.087" y1="351.411" y2="506.188" gradientTransform="translate(70.65 -1055.151)" gradientUnits="userSpaceOnUse"></linearGradient><linearGradient xlink:href="#b" id="e" x1="-584.199" x2="-496.297" y1="782.336" y2="937.714" gradientTransform="translate(864.696 -1491.34)" gradientUnits="userSpaceOnUse"></linearGradient></defs><g style="display:inline;opacity:1" transform="translate(-132.651 958.04)"><path id="d" d="m309.549-710.388 122.197 211.675-56.157.527-32.624-56.87-32.856 56.566-27.903-.011-14.29-24.69 46.81-80.49-33.23-57.826z" style="opacity:1;fill:url(#c);fill-opacity:1;fill-rule:evenodd;stroke:none;stroke-width:3;stroke-linecap:butt;stroke-linejoin:round;stroke-miterlimit:4;stroke-dasharray:none;stroke-opacity:1"></path><use xlink:href="#d" width="100%" height="100%" transform="rotate(60 407.112 -715.787)"></use><use xlink:href="#d" width="100%" height="100%" transform="rotate(-60 407.312 -715.7)"></use><use xlink:href="#d" width="100%" height="100%" transform="rotate(180 407.419 -715.756)"></use><path id="f" d="m309.549-710.388 122.197 211.675-56.157.527-32.624-56.87-32.856 56.566-27.903-.011-14.29-24.69 46.81-80.49-33.23-57.826z" style="color:#fff;clip-rule:nonzero;display:inline;overflow:visible;visibility:visible;opacity:1;isolation:auto;mix-blend-mode:normal;color-interpolation:sRGB;color-interpolation-filters:linearRGB;solid-color:#fff;solid-opacity:1;fill:url(#e);fill-opacity:1;fill-rule:evenodd;stroke:none;stroke-width:3;stroke-linecap:butt;stroke-linejoin:round;stroke-miterlimit:4;stroke-dasharray:none;stroke-dashoffset:0;stroke-opacity:1;color-rendering:auto;image-rendering:auto;shape-rendering:auto;text-rendering:auto;enable-background:accumulate"></path><use xlink:href="#f" width="100%" height="100%" style="display:inline" transform="rotate(120 407.34 -716.084)"></use><use xlink:href="#f" width="100%" height="100%" style="display:inline" transform="rotate(-120 407.288 -715.87)"></use></g></svg>
